<?xml version="1.0" encoding="utf-8"?>
<!DOCTYPE svg PUBLIC "-//W3C//DTD SVG 1.1//EN" "http://www.w3.org/Graphics/SVG/1.1/DTD/svg11.dtd">
<svg version="1.1" id="Layer_1" xmlns="http://www.w3.org/2000/svg" xmlns:xlink="http://www.w3.org/1999/xlink" x="0px" y="0px"
	 width="834.471px" height="262.088px" viewBox="0 0 834.471 262.088" enable-background="new 0 0 834.471 262.088"
	 xml:space="preserve">
<path opacity="0.7" fill="#00BCD4" enable-background="new    " d="M168.091,115.236c0,45.596-36.954,82.551-82.551,82.551
	c-45.588,0-82.55-36.955-82.55-82.551c0-45.58,36.962-82.543,82.55-82.543C131.137,32.693,168.091,69.656,168.091,115.236z"/>
<path opacity="0.7" fill="#FFEA00" enable-background="new    " d="M283.662,87.035c0,45.596-36.955,82.551-82.551,82.551
	c-45.596,0-82.55-36.955-82.55-82.551c0-45.581,36.955-82.542,82.55-82.542C246.708,4.493,283.662,41.455,283.662,87.035z"/>
<path opacity="0.7" fill="#F50057" enable-background="new    " d="M259.358,174.782c0,45.597-36.954,82.55-82.551,82.55
	c-45.596,0-82.551-36.953-82.551-82.55c0-45.58,36.955-82.542,82.551-82.542C222.404,92.239,259.358,129.202,259.358,174.782z"/>
<g>
	<path d="M305.745,97.493l18.154,72.987l43.581-72.987h4.246l-13.377,77.289h-2.865l12.58-72.564l-43.527,72.564h-2.229
		l-18.418-72.67l-12.581,72.67h-2.866l13.377-77.289H305.745z"/>
	<path d="M414.405,174.782c-0.107-3.113,0.229-6.617,1.008-10.511c-2.974,3.646-6.502,6.495-10.591,8.547
		c-4.087,2.053-8.521,3.06-13.297,3.025c-4.813,0-8.652-1.486-11.52-4.459c-2.866-2.974-3.946-6.688-3.238-11.147
		c0.885-5.415,3.885-9.643,8.998-12.687c5.113-3.043,11.6-4.653,19.455-4.831h13.644l1.539-8.387
		c0.743-4.706-0.195-8.413-2.814-11.121c-2.618-2.707-6.387-4.061-11.306-4.061c-4.813,0-9.166,1.283-13.06,3.849
		s-6.335,5.937-7.325,10.113l-2.866-0.107c0.989-4.918,3.716-8.935,8.175-12.049s9.484-4.671,15.076-4.671
		c5.838,0,10.314,1.655,13.43,4.963c3.114,3.309,4.264,7.706,3.45,13.191l-5.255,30.682l-0.372,3.61
		c-0.176,1.875-0.105,3.732,0.213,5.574l-0.053,0.477L414.405,174.782L414.405,174.782z M391.473,172.979
		c4.742,0.07,9.254-1.071,13.536-3.426c4.281-2.352,7.927-5.794,10.936-10.324l2.441-13.642H405.54
		c-7.149,0.142-13.049,1.513-17.703,4.114c-4.654,2.601-7.405,6.167-8.254,10.696c-0.637,3.503,0.203,6.458,2.521,8.864
		C384.421,171.669,387.544,172.907,391.473,172.979z"/>
	<path d="M453.049,101.846l-2.654,15.5h12.58l-0.371,2.867h-12.74l-7.271,42.083l-0.213,2.923c-0.105,2.409,0.389,4.295,1.487,5.659
		c1.096,1.364,2.76,2.063,4.989,2.101c0.99,0,2.92-0.16,5.785-0.479l0.107,2.708c-1.628,0.425-3.557,0.637-5.786,0.637
		c-6.017,0-9.149-3.099-9.396-9.299c-0.071-1.806,0.054-3.647,0.371-5.526l7.008-40.806H436.7l0.425-2.867h10.35l2.655-15.5H453.049
		z"/>
	<path d="M489.04,175.844c-4.601,0-8.564-1.292-11.89-3.875c-3.328-2.583-5.726-6.113-7.193-10.59
		c-1.469-4.476-1.85-9.174-1.142-14.093l0.425-2.655c0.849-5.166,2.663-9.997,5.44-14.491c2.778-4.494,6.078-7.927,9.9-10.298
		c3.822-2.37,7.91-3.556,12.262-3.556c5.804,0,10.353,2.141,13.643,6.423c3.292,4.283,4.688,9.767,4.193,16.456l-0.16,1.646
		l-0.477,3.344h-41.723l-0.583,3.126c-0.496,2.967-0.515,5.97-0.055,9.007c0.778,5.051,2.715,9.087,5.812,12.106
		c3.096,3.021,6.927,4.549,11.492,4.584c6.617,0.071,12.58-2.53,17.889-7.804l1.911,1.487
		C503.548,172.783,496.967,175.844,489.04,175.844z M496.842,119.151c-5.45,0-10.325,2.043-14.624,6.131
		c-4.3,4.087-7.493,9.422-9.581,16.005h38.75l0.159-0.69c0.459-2.548,0.496-5.096,0.106-7.645c-0.638-4.175-2.292-7.52-4.965-10.032
		C504.018,120.407,500.736,119.151,496.842,119.151z"/>
	<path d="M555.977,119.417l-3.45-0.266c-4.741,0-9.147,1.75-13.218,5.25c-4.068,3.5-6.794,7.761-8.175,12.78l-6.528,37.6h-2.866
		l9.873-57.437h2.866l-2.229,11.944c2.405-4.105,5.342-7.299,8.812-9.582c3.467-2.283,7.324-3.424,11.571-3.424
		c1.345,0,2.689,0.216,4.033,0.648L555.977,119.417z"/>
	<path d="M561.072,174.782h-2.867l9.873-57.436h2.867L561.072,174.782z M569.777,99.298c0.105-0.707,0.486-1.362,1.142-1.964
		c0.654-0.601,1.354-0.902,2.097-0.902c0.813,0,1.478,0.318,1.99,0.955c0.513,0.638,0.699,1.345,0.557,2.124
		c-0.104,0.708-0.494,1.354-1.166,1.938c-0.673,0.583-1.381,0.876-2.123,0.876c-0.814-0.035-1.47-0.354-1.965-0.956
		C569.812,100.767,569.637,100.077,569.777,99.298z"/>
	<path d="M616.226,174.782c-0.105-3.113,0.229-6.617,1.01-10.511c-2.975,3.646-6.503,6.495-10.592,8.547
		c-4.087,2.053-8.52,3.06-13.297,3.025c-4.812,0-8.651-1.486-11.52-4.459c-2.866-2.974-3.946-6.688-3.237-11.147
		c0.884-5.415,3.883-9.643,8.996-12.687c5.114-3.043,11.599-4.653,19.455-4.831h13.644l1.539-8.387
		c0.743-4.706-0.195-8.413-2.813-11.121c-2.618-2.707-6.388-4.061-11.308-4.061c-4.812,0-9.165,1.283-13.057,3.849
		c-3.896,2.566-6.336,5.937-7.326,10.113l-2.867-0.107c0.991-4.918,3.717-8.935,8.176-12.049s9.482-4.671,15.074-4.671
		c5.841,0,10.316,1.655,13.432,4.963s4.264,7.706,3.45,13.191l-5.257,30.682l-0.37,3.61c-0.178,1.875-0.105,3.732,0.213,5.574
		l-0.055,0.477L616.226,174.782L616.226,174.782z M593.294,172.979c4.741,0.07,9.253-1.071,13.535-3.426
		c4.281-2.352,7.928-5.794,10.936-10.324l2.441-13.642H607.36c-7.149,0.142-13.052,1.513-17.704,4.114
		c-4.652,2.601-7.404,6.167-8.254,10.696c-0.638,3.503,0.203,6.458,2.521,8.864C586.242,171.669,589.365,172.907,593.294,172.979z"
		/>
	<path d="M639.529,174.782h-2.867l14.014-81.535h2.867L639.529,174.782z"/>
	<path d="M679.182,175.844c-4.602,0-8.563-1.292-11.891-3.875s-5.725-6.113-7.192-10.59c-1.469-4.476-1.85-9.174-1.142-14.093
		l0.425-2.655c0.849-5.166,2.663-9.997,5.44-14.491c2.777-4.494,6.078-7.927,9.899-10.298c3.822-2.37,7.909-3.556,12.263-3.556
		c5.804,0,10.352,2.141,13.643,6.423c3.292,4.283,4.688,9.767,4.193,16.456l-0.16,1.646l-0.478,3.344H662.46l-0.584,3.126
		c-0.496,2.967-0.514,5.97-0.053,9.007c0.776,5.051,2.715,9.087,5.812,12.106c3.096,3.021,6.927,4.549,11.491,4.584
		c6.617,0.071,12.581-2.53,17.89-7.804l1.91,1.487C693.69,172.783,687.108,175.844,679.182,175.844z M686.984,119.151
		c-5.449,0-10.324,2.043-14.624,6.131c-4.301,4.088-7.493,9.422-9.581,16.005h38.75l0.158-0.69c0.459-2.548,0.496-5.096,0.106-7.645
		c-0.637-4.175-2.292-7.52-4.964-10.032C694.158,120.408,690.878,119.151,686.984,119.151z"/>
	<path d="M730.777,101.846l-2.653,15.5h12.58l-0.371,2.867h-12.74l-7.271,42.083l-0.214,2.923c-0.106,2.409,0.39,4.295,1.486,5.659
		s2.762,2.063,4.989,2.101c0.99,0,2.92-0.16,5.786-0.479l0.106,2.708c-1.629,0.425-3.559,0.637-5.786,0.637
		c-6.018,0-9.148-3.099-9.396-9.299c-0.07-1.806,0.054-3.647,0.372-5.526l7.008-40.806h-10.245l0.426-2.867h10.351l2.654-15.5
		H730.777z"/>
	<path d="M764.698,101.846l-2.654,15.5h12.58l-0.371,2.867h-12.74l-7.271,42.083l-0.213,2.923c-0.106,2.409,0.389,4.295,1.485,5.659
		s2.762,2.063,4.989,2.101c0.991,0,2.92-0.16,5.786-0.479l0.106,2.708c-1.628,0.425-3.558,0.637-5.786,0.637
		c-6.018,0-9.148-3.099-9.396-9.299c-0.069-1.806,0.055-3.647,0.372-5.526l7.008-40.806H748.35l0.425-2.867h10.351l2.655-15.5
		H764.698z"/>
	<path d="M800.688,175.844c-4.602,0-8.563-1.292-11.891-3.875s-5.725-6.113-7.191-10.59c-1.471-4.476-1.851-9.174-1.143-14.093
		l0.425-2.655c0.85-5.166,2.662-9.997,5.44-14.491c2.777-4.494,6.078-7.927,9.899-10.298c3.822-2.37,7.909-3.556,12.263-3.556
		c5.804,0,10.352,2.141,13.642,6.423c3.292,4.283,4.689,9.767,4.194,16.456l-0.16,1.646l-0.477,3.344h-41.725l-0.583,3.126
		c-0.496,2.967-0.514,5.97-0.054,9.007c0.778,5.051,2.715,9.087,5.812,12.106c3.097,3.021,6.928,4.549,11.492,4.584
		c6.617,0.071,12.58-2.53,17.89-7.804l1.91,1.487C815.196,172.783,808.615,175.844,800.688,175.844z M808.491,119.151
		c-5.45,0-10.325,2.043-14.624,6.131c-4.301,4.087-7.493,9.422-9.582,16.005h38.751l0.159-0.69c0.459-2.548,0.496-5.096,0.105-7.645
		c-0.637-4.175-2.293-7.52-4.964-10.032C815.666,120.407,812.385,119.151,808.491,119.151z"/>
</g>
</svg>
