<?xml version="1.0" encoding="utf-8"?>
<!DOCTYPE svg PUBLIC "-//W3C//DTD SVG 1.1//EN" "http://www.w3.org/Graphics/SVG/1.1/DTD/svg11.dtd">
<svg version="1.1" id="banner" xmlns="http://www.w3.org/2000/svg" xmlns:xlink="http://www.w3.org/1999/xlink" x="0px" y="0px"
	 width="1024px" height="380.708px" viewBox="0 0 1024 410.708" enable-background="new 0 0 1024 410.708" xml:space="preserve">
<path opacity="0.7" fill="#00BCD4" d="M203.761,143.057c0,56.276-45.61,101.886-101.886,101.886
	c-56.266,0-101.885-45.61-101.885-101.886c0-56.256,45.619-101.876,101.885-101.876C158.151,41.181,203.761,86.801,203.761,143.057z
	"/>
<path opacity="0.7" fill="#FFEA00" d="M346.401,108.251c0,56.275-45.61,101.885-101.886,101.885
	c-56.275,0-101.885-45.61-101.885-101.885c0-56.257,45.61-101.876,101.885-101.876C300.791,6.375,346.401,51.994,346.401,108.251z"
	/>
<path opacity="0.7" fill="#F50057" d="M316.404,216.549c0,56.277-45.609,101.885-101.885,101.885
	c-56.276,0-101.886-45.608-101.886-101.885c0-56.255,45.61-101.875,101.886-101.875
	C270.795,114.673,316.404,160.293,316.404,216.549z"/>
<text transform="matrix(1 0 0 1 346.4014 216.5488)" font-family="'Roboto" font-weight="100" font-style="italic" font-size="134.1762">Materialette</text>
</svg>
